<?xml version="1.0" encoding="utf-8"?>
<!-- Generator: Adobe Illustrator 16.0.0, SVG Export Plug-In . SVG Version: 6.00 Build 0)  -->
<!DOCTYPE svg PUBLIC "-//W3C//DTD SVG 1.0//EN" "http://www.w3.org/TR/2001/REC-SVG-20010904/DTD/svg10.dtd">
<svg version="1.0" id="Layer_1" xmlns="http://www.w3.org/2000/svg" xmlns:xlink="http://www.w3.org/1999/xlink" x="0px" y="0px"
	 width="611px" height="220px" viewBox="0 0 611 220" enable-background="new 0 0 611 220" xml:space="preserve">
<rect x="256.152" y="43.811" fill="none" stroke="#000000" stroke-miterlimit="10" width="103.797" height="94.303"/>
<g>
	<g>
		<line fill="none" stroke="#000000" stroke-width="1.0006" stroke-miterlimit="10" x1="34.367" y1="43.81" x2="131.1" y2="43.81"/>
		<g>
			<polygon points="138.165,43.81 128.209,47.878 130.571,43.81 128.209,39.743 			"/>
		</g>
	</g>
</g>
<g>
	<g>
		
			<line fill="none" stroke="#000000" stroke-width="1.0006" stroke-miterlimit="10" x1="138.165" y1="43.81" x2="138.165" y2="131.049"/>
		<g>
			<polygon points="138.165,138.114 134.097,128.158 138.165,130.521 142.231,128.158 			"/>
		</g>
	</g>
</g>
<g>
	<g>
		
			<line fill="none" stroke="#000000" stroke-width="1.0006" stroke-miterlimit="10" x1="138.165" y1="138.114" x2="41.432" y2="138.114"/>
		<g>
			<polygon points="34.367,138.114 44.323,134.046 41.96,138.114 44.323,142.181 			"/>
		</g>
	</g>
</g>
<g>
	<g>
		
			<line fill="none" stroke="#000000" stroke-width="1.0006" stroke-miterlimit="10" x1="34.367" y1="138.114" x2="34.367" y2="50.875"/>
		<g>
			<polygon points="34.367,43.81 38.435,53.766 34.367,51.403 30.3,53.766 			"/>
		</g>
	</g>
</g>
<g>
	<g>
		
			<line fill="none" stroke="#000000" stroke-width="1.0006" stroke-miterlimit="10" x1="359.949" y1="43.811" x2="361.366" y2="43.811"/>
		
			<line fill="none" stroke="#000000" stroke-width="1.0006" stroke-miterlimit="10" stroke-dasharray="3.1039,3.1039" x1="364.471" y1="43.811" x2="375.334" y2="43.811"/>
		
			<line fill="none" stroke="#000000" stroke-width="1.0006" stroke-miterlimit="10" x1="376.886" y1="43.811" x2="378.304" y2="43.811"/>
		<g>
			<polygon points="381.836,43.811 376.858,45.845 378.039,43.811 376.858,41.777 			"/>
		</g>
	</g>
</g>
<g>
	<g>
		
			<line fill="none" stroke="#000000" stroke-width="1.0006" stroke-miterlimit="10" x1="359.949" y1="21.924" x2="359.949" y2="23.341"/>
		
			<line fill="none" stroke="#000000" stroke-width="1.0006" stroke-miterlimit="10" stroke-dasharray="2.7217,2.7217" x1="359.949" y1="26.063" x2="359.949" y2="41.032"/>
		
			<line fill="none" stroke="#000000" stroke-width="1.0006" stroke-miterlimit="10" x1="359.949" y1="42.393" x2="359.949" y2="43.811"/>
	</g>
</g>
<g>
	<g>
		
			<line fill="none" stroke="#000000" stroke-width="1.0006" stroke-miterlimit="10" x1="381.836" y1="43.811" x2="380.834" y2="42.809"/>
		
			<line fill="none" stroke="#000000" stroke-width="1.0006" stroke-miterlimit="10" stroke-dasharray="2.7317,2.7317" x1="378.902" y1="40.877" x2="364.415" y2="26.39"/>
		
			<line fill="none" stroke="#000000" stroke-width="1.0006" stroke-miterlimit="10" x1="363.449" y1="25.424" x2="362.447" y2="24.422"/>
		<g>
			<polygon points="359.949,21.924 364.907,24.005 362.634,24.608 362.031,26.881 			"/>
		</g>
	</g>
</g>
<g>
	<g>
		
			<line fill="none" stroke="#000000" stroke-width="1.0006" stroke-miterlimit="10" x1="234.265" y1="43.811" x2="235.683" y2="43.811"/>
		
			<line fill="none" stroke="#000000" stroke-width="1.0006" stroke-miterlimit="10" stroke-dasharray="2.7217,2.7217" x1="238.404" y1="43.811" x2="253.374" y2="43.811"/>
		
			<line fill="none" stroke="#000000" stroke-width="1.0006" stroke-miterlimit="10" x1="254.734" y1="43.811" x2="256.152" y2="43.811"/>
	</g>
</g>
<g>
	<g>
		
			<line fill="none" stroke="#000000" stroke-width="1.0006" stroke-miterlimit="10" x1="359.949" y1="138.114" x2="359.949" y2="139.531"/>
		
			<line fill="none" stroke="#000000" stroke-width="1.0006" stroke-miterlimit="10" stroke-dasharray="3.1039,3.1039" x1="359.949" y1="142.635" x2="359.949" y2="153.499"/>
		
			<line fill="none" stroke="#000000" stroke-width="1.0006" stroke-miterlimit="10" x1="359.949" y1="155.05" x2="359.949" y2="156.468"/>
		<g>
			<polygon points="359.949,160 357.915,155.023 359.949,156.204 361.982,155.023 			"/>
		</g>
	</g>
</g>
<g>
	<g>
		
			<line fill="none" stroke="#000000" stroke-width="1.0006" stroke-miterlimit="10" x1="381.836" y1="138.114" x2="380.419" y2="138.114"/>
		
			<line fill="none" stroke="#000000" stroke-width="1.0006" stroke-miterlimit="10" stroke-dasharray="2.7217,2.7217" x1="377.697" y1="138.114" x2="362.728" y2="138.114"/>
		
			<line fill="none" stroke="#000000" stroke-width="1.0006" stroke-miterlimit="10" x1="361.367" y1="138.114" x2="359.949" y2="138.114"/>
	</g>
</g>
<g>
	<g>
		
			<line fill="none" stroke="#000000" stroke-width="1.0006" stroke-miterlimit="10" x1="359.949" y1="160" x2="360.951" y2="158.999"/>
		
			<line fill="none" stroke="#000000" stroke-width="1.0006" stroke-miterlimit="10" stroke-dasharray="2.7317,2.7317" x1="362.883" y1="157.067" x2="377.37" y2="142.58"/>
		
			<line fill="none" stroke="#000000" stroke-width="1.0006" stroke-miterlimit="10" x1="378.336" y1="141.614" x2="379.338" y2="140.612"/>
		<g>
			<polygon points="381.836,138.114 379.754,143.072 379.151,140.798 376.878,140.196 			"/>
		</g>
	</g>
</g>
<g>
	<g>
		
			<line fill="none" stroke="#000000" stroke-width="1.0006" stroke-miterlimit="10" x1="256.152" y1="138.114" x2="254.734" y2="138.114"/>
		
			<line fill="none" stroke="#000000" stroke-width="1.0006" stroke-miterlimit="10" stroke-dasharray="3.1039,3.1039" x1="251.631" y1="138.114" x2="240.767" y2="138.114"/>
		
			<line fill="none" stroke="#000000" stroke-width="1.0006" stroke-miterlimit="10" x1="239.215" y1="138.114" x2="237.798" y2="138.114"/>
		<g>
			<polygon points="234.265,138.114 239.243,136.08 238.062,138.114 239.243,140.147 			"/>
		</g>
	</g>
</g>
<g>
	<g>
		
			<line fill="none" stroke="#000000" stroke-width="1.0006" stroke-miterlimit="10" x1="256.152" y1="160" x2="256.152" y2="158.583"/>
		
			<line fill="none" stroke="#000000" stroke-width="1.0006" stroke-miterlimit="10" stroke-dasharray="2.7217,2.7217" x1="256.152" y1="155.861" x2="256.152" y2="140.892"/>
		
			<line fill="none" stroke="#000000" stroke-width="1.0006" stroke-miterlimit="10" x1="256.152" y1="139.531" x2="256.152" y2="138.114"/>
	</g>
</g>
<g>
	<g>
		
			<line fill="none" stroke="#000000" stroke-width="1.0006" stroke-miterlimit="10" x1="234.265" y1="138.114" x2="235.268" y2="139.116"/>
		
			<line fill="none" stroke="#000000" stroke-width="1.0006" stroke-miterlimit="10" stroke-dasharray="2.7317,2.7317" x1="237.199" y1="141.047" x2="251.686" y2="155.535"/>
		
			<line fill="none" stroke="#000000" stroke-width="1.0006" stroke-miterlimit="10" x1="252.652" y1="156.5" x2="253.654" y2="157.502"/>
		<g>
			<polygon points="256.152,160 251.194,157.919 253.467,157.316 254.07,155.043 			"/>
		</g>
	</g>
</g>
<g>
	<g>
		
			<line fill="none" stroke="#000000" stroke-width="1.0006" stroke-miterlimit="10" x1="256.152" y1="43.811" x2="256.152" y2="42.393"/>
		
			<line fill="none" stroke="#000000" stroke-width="1.0006" stroke-miterlimit="10" stroke-dasharray="3.1039,3.1039" x1="256.152" y1="39.289" x2="256.152" y2="28.426"/>
		
			<line fill="none" stroke="#000000" stroke-width="1.0006" stroke-miterlimit="10" x1="256.152" y1="26.874" x2="256.152" y2="25.457"/>
		<g>
			<polygon points="256.152,21.924 258.186,26.901 256.152,25.72 254.118,26.901 			"/>
		</g>
	</g>
</g>
<text transform="matrix(1 0 0 1 266.0132 190.0132)" font-family="'MyriadPro-Regular'" font-size="12">Laser cutter mode</text>
<g>
	<g>
		
			<line fill="none" stroke="#000000" stroke-width="1.0006" stroke-miterlimit="10" x1="476.013" y1="43.811" x2="572.744" y2="43.811"/>
		<g>
			<polygon points="579.81,43.811 569.854,47.878 572.217,43.811 569.854,39.744 			"/>
		</g>
	</g>
</g>
<g>
	<g>
		<path fill="none" stroke="#000000" stroke-width="1.0006" stroke-miterlimit="10" d="M579.811,43.811c0,5.523-4.478,10-10.001,10
			c0,0,0,65.336,0,87.241"/>
		<g>
			<polygon points="569.81,148.114 565.741,138.158 569.81,140.521 573.877,138.158 			"/>
		</g>
	</g>
</g>
<g>
	<g>
		<path fill="none" stroke="#000000" stroke-width="1.0006" stroke-miterlimit="10" d="M569.811,148.115
			c-5.523,0-10.001-4.478-10.001-10.001v0h-96.731"/>
		<g>
			<polygon points="456.013,138.114 465.968,134.046 463.605,138.114 465.968,142.181 			"/>
		</g>
	</g>
</g>
<g>
	<g>
		<path fill="none" stroke="#000000" stroke-width="1.0006" stroke-miterlimit="10" d="M456.013,138.115
			c0-5.523,4.478-10.001,10.001-10.001l-0.001-87.239"/>
		<g>
			<polygon points="466.013,33.811 470.081,43.766 466.013,41.404 461.945,43.766 			"/>
		</g>
	</g>
</g>
<text transform="matrix(1 0 0 1 479 190.0132)" font-family="'MyriadPro-Regular'" font-size="12">Drag knife mode</text>
<text transform="matrix(1 0 0 1 63 190.0132)" font-family="'MyriadPro-Regular'" font-size="12">Input file</text>
</svg>
